<svg id="Capa_1" enable-background="new 0 0 512 512" height="512" viewBox="0 0 512 512" width="512" xmlns="http://www.w3.org/2000/svg"><path d="m87.292 288.444c-12.591 0-22.496 10.875-21.193 23.399 11.697 112.469 106.781 200.157 222.345 200.157 123.831 0 223.556-99.725 223.556-223.556 0-115.564-87.688-210.647-200.157-222.345-12.524-1.303-23.399 8.602-23.399 21.193v179.862c0 11.759-9.532 21.291-21.291 21.291h-179.861z" fill="#fedbac"/><path d="m512 288.444c0-115.564-87.688-210.647-200.157-222.345-12.524-1.303-23.399 8.602-23.399 21.193v179.862 244.846c123.831 0 223.556-99.726 223.556-223.556z" fill="#febe85"/><path d="m311.843 66.099c-12.524-1.303-23.399 8.602-23.399 21.193v34.182c92.215 0 166.97 74.754 166.971 166.969.001 92.13-74.843 166.974-166.973 166.973-92.215-.001-166.969-74.756-166.969-166.971h-34.181c-12.591 0-22.496 10.875-21.193 23.399 11.697 112.468 106.781 200.156 222.345 200.156 123.831 0 223.556-99.725 223.556-223.556 0-115.564-87.688-210.648-200.157-222.345z" fill="#d7723d"/><path d="m201.151 222.442c11.759 0 21.291-9.532 21.291-21.291v-179.863c0-12.681-11.01-22.493-23.622-21.168-104.599 10.985-187.715 94.101-198.7 198.701-1.324 12.611 8.487 23.622 21.168 23.622h179.863z" fill="#fedbac"/><path d="m198.821.12c-104.6 10.985-187.716 94.101-198.701 198.701-1.324 12.612 8.487 23.622 21.168 23.622h34.183c0-92.216 74.755-166.971 166.971-166.971v-34.184c0-12.681-11.01-22.492-23.621-21.168z" fill="#d7723d"/><circle cx="206.997" cy="343.259" fill="#fff3f4" r="15.968"/><circle cx="399.681" cy="321.968" fill="#edded8" r="15.968"/><circle cx="340.066" cy="382.648" fill="#c13447" r="15.968"/><circle cx="335.808" cy="318.775" fill="#32a06a" r="15.968"/><circle cx="340.066" cy="188.9" fill="#32a06a" r="15.968"/><circle cx="128.22" cy="173.996" fill="#36b579" r="15.968"/><path d="m248.42 400.843c-4.68 0-9.291-2.184-12.219-6.282-4.815-6.741-3.254-16.109 3.487-20.925l37.259-26.614c6.741-4.815 16.108-3.254 20.925 3.487 4.815 6.741 3.254 16.109-3.487 20.925l-37.26 26.614c-2.641 1.888-5.687 2.795-8.705 2.795z" fill="#ff5f62"/><path d="m387.991 270.917c-1.49 0-3.006-.224-4.503-.694l-43.681-13.733c-7.902-2.485-12.295-10.905-9.811-18.809 2.484-7.902 10.905-12.294 18.809-9.811l43.681 13.733c7.902 2.485 12.295 10.905 9.811 18.809-2.014 6.405-7.929 10.505-14.306 10.505z" fill="#c13447"/><path d="m172.124 163.344c-6.367 0-12.275-4.086-14.297-10.479l-7.712-24.378c-2.499-7.898 1.878-16.327 9.777-18.826 7.896-2.498 16.327 1.878 18.826 9.777l7.712 24.378c2.499 7.898-1.878 16.327-9.777 18.826-1.506.475-3.03.702-4.529.702z" fill="#ff5f62"/><path d="m297.873 350.509c-2.341-3.277-5.761-5.319-9.429-6.01v31.179l5.941-4.244c6.742-4.816 8.303-14.184 3.488-20.925z" fill="#c13447"/><path d="m455.415 288.443c-.001-92.215-74.756-166.969-166.971-166.969v333.942c92.129-.001 166.973-74.844 166.971-166.973z" fill="none"/><path d="m512 288.444c0-115.564-87.688-210.647-200.157-222.345-12.524-1.303-23.399 8.602-23.399 21.193v34.182c92.215 0 166.97 74.754 166.971 166.969.001 92.129-74.842 166.973-166.971 166.973v56.584c123.831 0 223.556-99.726 223.556-223.556z" fill="#b25529"/></svg>